<svg width="164" height="36" viewBox="0 0 164 36" fill="none" xmlns="http://www.w3.org/2000/svg">
<path d="M14.2512 31.3954V9.15324H3.6851C1.64987 9.15324 0 7.50336 0 5.46814V4.02042C0 1.9852 1.64987 0.335327 3.68509 0.335327H10.5661C12.6013 0.335327 14.2512 1.9852 14.2512 4.02042V9.15324H30.4531C32.4883 9.15324 34.1382 10.8031 34.1382 12.8383V27.7103C34.1382 29.7455 32.4883 31.3954 30.4531 31.3954H14.2512Z" fill="black"/>
<mask id="mask0_16_4789" style="mask-type:luminance" maskUnits="userSpaceOnUse" x="65" y="24" width="11" height="11">
<path fill-rule="evenodd" clip-rule="evenodd" d="M65.6152 24.9231H75.5607V34.9173H65.6152V24.9231Z" fill="white"/>
</mask>
<g mask="url(#mask0_16_4789)">
<path fill-rule="evenodd" clip-rule="evenodd" d="M65.6152 32.4964V24.9231L75.5607 34.9173V27.3439C75.5607 26.007 74.4475 24.9231 73.0743 24.9231C71.7011 24.9231 70.588 26.007 70.588 27.3439V32.4964C70.588 33.8334 69.4748 34.9173 68.1016 34.9173H68.1015C66.7284 34.9173 65.6152 33.8334 65.6152 32.4964" fill="black"/>
</g>
<path fill-rule="evenodd" clip-rule="evenodd" d="M86.7656 29.5299C86.8922 28.6965 87.5372 28.2035 88.4474 28.2329C89.2852 28.2623 89.894 28.7729 89.9602 29.5299H86.7656ZM88.6887 27.2118C87.1637 27.0474 85.8738 27.9688 85.6146 29.436C85.458 30.3223 85.6267 31.1438 86.2355 31.8482C87.1396 32.8928 88.8635 33.0982 90.0571 32.3118C90.4006 32.0829 90.6839 31.7895 90.8888 31.4197C90.5814 31.2671 90.2861 31.1263 89.9968 30.9796C89.9787 30.9913 89.9666 30.9972 89.9605 31.0089C89.4603 31.7602 88.3512 31.9127 87.6037 31.5782C87.1156 31.3552 86.8564 30.9619 86.7539 30.4396H91.1179C91.1179 30.1696 91.1299 29.9291 91.1119 29.6884C91.0275 28.3385 90.0691 27.3585 88.6887 27.2118V27.2118Z" fill="black"/>
<mask id="mask1_16_4789" style="mask-type:luminance" maskUnits="userSpaceOnUse" x="104" y="27" width="6" height="6">
<path fill-rule="evenodd" clip-rule="evenodd" d="M104.172 27.1941H109.922V32.7872H104.172V27.1941Z" fill="white"/>
</mask>
<g mask="url(#mask1_16_4789)">
<path fill-rule="evenodd" clip-rule="evenodd" d="M107.24 31.7246C106.348 31.8361 105.504 31.2199 105.359 30.3513C105.341 30.2339 105.329 30.1107 105.317 29.9933C105.323 28.9604 106.119 28.2092 107.15 28.2503C108.072 28.2914 108.783 29.0601 108.777 30.005C108.765 30.9089 108.138 31.6132 107.24 31.7246M107.023 27.194C105.39 27.1999 104.172 28.3971 104.172 29.9934C104.178 31.5957 105.408 32.7929 107.047 32.7871C108.699 32.7812 109.922 31.5781 109.922 29.9759C109.916 28.3795 108.681 27.1881 107.023 27.194" fill="black"/>
</g>
<mask id="mask2_16_4789" style="mask-type:luminance" maskUnits="userSpaceOnUse" x="65" y="24" width="45" height="11">
<path fill-rule="evenodd" clip-rule="evenodd" d="M65.6152 34.9173H109.923V24.9231H65.6152V34.9173Z" fill="white"/>
</mask>
<g mask="url(#mask2_16_4789)">
<path fill-rule="evenodd" clip-rule="evenodd" d="M101.968 32.6404H103.095V27.3407H101.968V32.6404Z" fill="black"/>
<path fill-rule="evenodd" clip-rule="evenodd" d="M102.613 24.9346C102.191 24.9346 101.847 25.2691 101.847 25.6799C101.847 26.0907 102.191 26.4252 102.613 26.4252C103.035 26.4252 103.378 26.0907 103.378 25.6799C103.378 25.2691 103.035 24.9346 102.613 24.9346" fill="black"/>
<path fill-rule="evenodd" clip-rule="evenodd" d="M95.5481 27.3407L94.2883 29.0603L93.0164 27.3407H91.6421L93.5951 29.9993L91.6421 32.6462L93.0345 32.6404L94.2883 30.9443L95.536 32.6404L96.9283 32.6462L94.9754 29.9993L96.9283 27.3407H95.5481Z" fill="black"/>
<path fill-rule="evenodd" clip-rule="evenodd" d="M81.787 27.1941C81.1359 27.1941 80.5452 27.3878 80.0811 27.7224V27.1941H78.9419V32.6463H80.0811V29.9877C80.0872 28.9607 80.8828 28.2036 81.9135 28.2505C82.8297 28.2916 83.541 29.0488 83.541 29.9877L83.5471 32.6463H84.6863V29.9702C84.6802 28.3797 83.4445 27.1882 81.787 27.1941" fill="black"/>
<path fill-rule="evenodd" clip-rule="evenodd" d="M99.0022 24.9346H97.8569V27.3819C97.8569 27.7282 97.863 28.0391 97.863 28.2622V29.841H97.8569V29.8586C97.863 31.4491 99.0926 32.6405 100.744 32.6522V31.5958H100.642C99.7195 31.5547 99.0083 30.7917 99.0083 29.8468V28.4324H100.738V27.3349H98.9962V24.9346H99.0022Z" fill="black"/>
</g>
<path d="M59.3579 27.1222H59.9517L57.5767 33.1257C57.3641 33.6682 57.0635 34.0933 56.675 34.4012C56.2865 34.7164 55.8614 34.8557 55.3996 34.819V34.3022C55.7514 34.3316 56.0666 34.2289 56.3452 33.9944C56.6311 33.7671 56.862 33.4409 57.0379 33.0158L57.1588 32.7189L54.6299 27.1222H55.2236L57.4447 32.0152L59.3579 27.1222Z" fill="black"/>
<path d="M51.3752 27.0012C52.1669 27.0012 52.8376 27.2798 53.3874 27.8369C53.9445 28.3867 54.2231 29.0647 54.2231 29.8711C54.2231 30.6774 53.9445 31.3591 53.3874 31.9162C52.8376 32.466 52.1669 32.7409 51.3752 32.7409C50.8548 32.7409 50.3856 32.6163 49.9678 32.367C49.5573 32.1178 49.2384 31.7769 49.0112 31.3445V32.6199H48.4614V24.9231H49.0112V28.3977C49.2384 27.9652 49.5573 27.6243 49.9678 27.3751C50.3856 27.1259 50.8548 27.0012 51.3752 27.0012ZM49.6819 31.5314C50.1364 31.9859 50.6898 32.2131 51.3422 32.2131C51.9946 32.2131 52.5444 31.9859 52.9916 31.5314C53.446 31.0769 53.6733 30.5235 53.6733 29.8711C53.6733 29.2187 53.446 28.6652 52.9916 28.2107C52.5444 27.7563 51.9946 27.529 51.3422 27.529C50.6898 27.529 50.1364 27.7563 49.6819 28.2107C49.2348 28.6652 49.0112 29.2187 49.0112 29.8711C49.0112 30.5235 49.2348 31.0769 49.6819 31.5314Z" fill="black"/>
<path d="M157.179 5.24756C158.849 5.24756 160.272 5.88436 161.446 7.15795C162.637 8.41501 163.232 9.96152 163.232 11.7975C163.232 13.6334 162.637 15.1882 161.446 16.4618C160.272 17.7189 158.849 18.3474 157.179 18.3474C155.442 18.3474 154.102 17.7437 153.16 16.5362V22.9621H149.959V5.5949H153.16V7.05871C154.102 5.85128 155.442 5.24756 157.179 5.24756ZM154.127 14.3281C154.772 14.9732 155.591 15.2957 156.583 15.2957C157.576 15.2957 158.394 14.9732 159.04 14.3281C159.701 13.6665 160.032 12.823 160.032 11.7975C160.032 10.772 159.701 9.9367 159.04 9.29164C158.394 8.63003 157.576 8.29922 156.583 8.29922C155.591 8.29922 154.772 8.63003 154.127 9.29164C153.482 9.9367 153.16 10.772 153.16 11.7975C153.16 12.823 153.482 13.6665 154.127 14.3281Z" fill="black"/>
<path d="M141.648 5.24756C143.319 5.24756 144.741 5.88436 145.915 7.15795C147.106 8.41501 147.702 9.96152 147.702 11.7975C147.702 13.6334 147.106 15.1882 145.915 16.4618C144.741 17.7189 143.319 18.3474 141.648 18.3474C139.911 18.3474 138.572 17.7437 137.629 16.5362V22.9621H134.428V5.5949H137.629V7.05871C138.572 5.85128 139.911 5.24756 141.648 5.24756ZM138.596 14.3281C139.241 14.9732 140.06 15.2957 141.053 15.2957C142.045 15.2957 142.864 14.9732 143.509 14.3281C144.17 13.6665 144.501 12.823 144.501 11.7975C144.501 10.772 144.17 9.9367 143.509 9.29164C142.864 8.63003 142.045 8.29922 141.053 8.29922C140.06 8.29922 139.241 8.63003 138.596 9.29164C137.951 9.9367 137.629 10.772 137.629 11.7975C137.629 12.823 137.951 13.6665 138.596 14.3281Z" fill="black"/>
<path d="M129.17 18L128.128 14.8739H121.206L120.164 18H116.467L122.545 0.632812H126.788L132.891 18H129.17ZM122.297 11.6734H127.061L124.679 4.57765L122.297 11.6734Z" fill="black"/>
<path d="M107.491 16.4618C106.218 17.7189 104.663 18.3474 102.827 18.3474C100.991 18.3474 99.436 17.7189 98.1624 16.4618C96.9054 15.1882 96.2769 13.6334 96.2769 11.7975C96.2769 9.96152 96.9054 8.41501 98.1624 7.15795C99.436 5.88436 100.991 5.24756 102.827 5.24756C104.663 5.24756 106.218 5.88436 107.491 7.15795C108.765 8.41501 109.402 9.96152 109.402 11.7975C109.402 13.6334 108.765 15.1882 107.491 16.4618ZM100.42 14.2537C101.065 14.8988 101.867 15.2213 102.827 15.2213C103.786 15.2213 104.588 14.8988 105.233 14.2537C105.878 13.6086 106.201 12.7899 106.201 11.7975C106.201 10.8051 105.878 9.98633 105.233 9.34126C104.588 8.69619 103.786 8.37366 102.827 8.37366C101.867 8.37366 101.065 8.69619 100.42 9.34126C99.7916 9.98633 99.4774 10.8051 99.4774 11.7975C99.4774 12.7899 99.7916 13.6086 100.42 14.2537Z" fill="black"/>
<path d="M86.2815 0.632812C88.6633 0.632812 90.6482 1.46809 92.236 3.13865C93.8404 4.80921 94.6426 6.86847 94.6426 9.31642C94.6426 11.7644 93.8404 13.8236 92.236 15.4942C90.6482 17.1647 88.6633 18 86.2815 18H79.3843V0.632812H86.2815ZM86.2815 14.7251C87.7867 14.7251 89.0107 14.2289 89.9535 13.2364C90.8963 12.2275 91.3677 10.9208 91.3677 9.31642C91.3677 7.71202 90.8963 6.41361 89.9535 5.4212C89.0107 4.41225 87.7867 3.90777 86.2815 3.90777H82.8081V14.7251H86.2815Z" fill="black"/>
<path d="M68.8705 16.4618C67.5969 17.7189 66.0421 18.3474 64.2062 18.3474C62.3702 18.3474 60.8154 17.7189 59.5418 16.4618C58.2848 15.1882 57.6562 13.6334 57.6562 11.7975C57.6562 9.96152 58.2848 8.41501 59.5418 7.15795C60.8154 5.88436 62.3702 5.24756 64.2062 5.24756C66.0421 5.24756 67.5969 5.88436 68.8705 7.15795C70.1441 8.41501 70.7809 9.96152 70.7809 11.7975C70.7809 13.6334 70.1441 15.1882 68.8705 16.4618ZM61.7996 14.2537C62.4446 14.8988 63.2468 15.2213 64.2062 15.2213C65.1655 15.2213 65.9677 14.8988 66.6128 14.2537C67.2578 13.6086 67.5804 12.7899 67.5804 11.7975C67.5804 10.8051 67.2578 9.98633 66.6128 9.34126C65.9677 8.69619 65.1655 8.37366 64.2062 8.37366C63.2468 8.37366 62.4446 8.69619 61.7996 9.34126C61.171 9.98633 60.8568 10.8051 60.8568 11.7975C60.8568 12.7899 61.171 13.6086 61.7996 14.2537Z" fill="black"/>
<path d="M58.792 0.632812V3.90777H54.1028V18H50.679V3.90777H46.0146V0.632812H58.792Z" fill="black"/>
</svg>
